# xmcd
#
# Track frame offsets:
#	150
#	10052
#	22732
#	33250
#	43557
#	52392
#	61832
#	72692
#	82912
#	93452
#	108135
#	118715
#	128532
#	139340
#	149065
#	159955
#	169995
#	182287
#	194775
#	202837
#	212130
#	223147
#	233715
#	247457
#	257647
#	267875
#	276770
#	286312
#	298317
#	309020
#	318530
#	328570
#	340305
#
# Disc length: 4679 seconds
#
# Revision: 1
# Processed by: cddbd v1.5.2PL0 Copyright (c) Steve Scherf et al.
# Submitted via: audiograbber 1.83.01
#
DISCID=f8124521
DTITLE=Wilma Lee and Stoney Cooper - Big Midnight Special CD3
DYEAR=2007
DGENRE=Country
TTITLE0=I Want To Be Loved
TTITLE1=This Crazy, Crazy World
TTITLE2=Row Number Two, Seat Number Three
TTITLE3=I've Been Cheated Too
TTITLE4=It's Just As Well (& Al Terry)
TTITLE5=I'm Not The Girl (& Al Terry)
TTITLE6=This Thing Called Man
TTITLE7=Loving You
TTITLE8=X Marks The Spot
TTITLE9=The Tramp On The Street
TTITLE10=My Heart Keeps Crying
TTITLE11=He Thaught Them How
TTITLE12=Diamond Joe
TTITLE13=I Tell My Heart
TTITLE14=Come Walk With Me
TTITLE15=Is It Right
TTITLE16=Big Midnight Special
TTITLE17=Walking My Lord Up Calvary Hill
TTITLE18=The Canadian Reel
TTITLE19=Home Sweet Home
TTITLE20=Heartbreak Street
TTITLE21=There's A Big Wheel
TTITLE22=Rachel's Guitar
TTITLE23=Night After Night
TTITLE24=Johnny My Love (Grandma's Diary)
TTITLE25=More Love
TTITLE26=This Old House
TTITLE27=Train, You Took My Baby
TTITLE28=Heartaches Don't Lie
TTITLE29=I Gotta Laugh (To Keep From Crying)
TTITLE30=Wreck On The Highway
TTITLE31=Trouble Ahead
TTITLE32=the mighty battle cry
EXTD=
EXTT0=
EXTT1=
EXTT2=
EXTT3=
EXTT4=
EXTT5=
EXTT6=
EXTT7=
EXTT8=
EXTT9=
EXTT10=
EXTT11=
EXTT12=
EXTT13=
EXTT14=
EXTT15=
EXTT16=
EXTT17=
EXTT18=
EXTT19=
EXTT20=
EXTT21=
EXTT22=
EXTT23=
EXTT24=
EXTT25=
EXTT26=
EXTT27=
EXTT28=
EXTT29=
EXTT30=
EXTT31=
EXTT32=
PLAYORDER=
